<svg xmlns="http://www.w3.org/2000/svg" width="256" height="256"><path fill="#FFF" fill-opacity=".016" fill-rule="evenodd" d="M0 128.004v128.004l128.25-.254 128.25-.254.254-127.75L257.008 0H0v128.004m.485.496c0 70.4.119 99.053.265 63.672.146-35.38.146-92.98 0-128C.604 29.153.485 58.1.485 128.5"/><path fill="#FFF" fill-opacity=".338" fill-rule="evenodd" d="M113.568 33.532c-14.845 4.074-29.423 16.076-35.894 29.552-1.959 4.079-4.026 9.441-4.593 11.916-1.533 6.684-1.294 21.762.45 28.458 4.713 18.093 19.861 33.717 38.469 39.677 9.021 2.89 23.979 2.89 33 0 18.075-5.79 32.42-20.134 38.137-38.135 2.714-8.546 2.919-23.063.445-31.5-5.675-19.353-21.488-34.931-40.627-40.025-6.764-1.8-22.733-1.769-29.387.057m7.37 5.521c-9.739 1.45-21.065 6.967-26.343 12.831L92.69 54h27.705c30.445 0 32.152.29 35.088 5.967.834 1.614 1.517 4.306 1.517 5.983 0 3.035.027 3.05 5.577 3.05 4.831 0 5.968.391 8.5 2.923 2.205 2.206 2.923 3.856 2.923 6.725 0 5.113-10.459 37.552-12.787 39.659-1.014.917-3.257 2.161-4.986 2.764-2.829.986-3.089 1.413-2.599 4.262.962 5.592 1.15 5.856 3.33 4.689 1.094-.585 4.178-3.253 6.853-5.928 15.258-15.258 19.104-38.441 9.599-57.868-3.169-6.476-11.789-15.985-18.188-20.062-9.387-5.981-22.966-8.797-34.284-7.111M85.576 62.879c-2.998 4.749-6.104 13.858-6.924 20.307l-.596 4.686 10.722.513c5.897.282 11.622.5 12.722.483 1.1-.016 10.875-.237 21.723-.49 16.897-.394 20.072-.231 22.157 1.136 2.813 1.842 2.883 1.766 5.015-5.446 2.305-7.799 2.148-19.175-.305-22.207l-1.911-2.361-30.05-.292-30.051-.292-2.502 3.963m-3.196 9.573c-.826 2.153.424 3.548 3.179 3.548C87.496 76 88 75.484 88 73.5c0-2.008-.498-2.5-2.531-2.5-1.393 0-2.783.653-3.089 1.452M99 73.5c0 2 .5 2.5 2.5 2.5s2.5-.5 2.5-2.5-.5-2.5-2.5-2.5-2.5.5-2.5 2.5m17 0c0 2 .5 2.5 2.5 2.5s2.5-.5 2.5-2.5-.5-2.5-2.5-2.5-2.5.5-2.5 2.5m17 0c0 2 .5 2.5 2.5 2.5s2.5-.5 2.5-2.5-.5-2.5-2.5-2.5-2.5.5-2.5 2.5m26.652 1.991c-.82.82-2.893 6.108-4.606 11.75-1.714 5.642-3.681 11.834-4.372 13.759l-1.256 3.5-34.281.5-34.28.5 2.874 5.5 2.875 5.5h34.17c32.852 0 34.245-.077 36.125-2C158.633 112.728 169 81.98 169 78.616c0-1.931-3.349-4.616-5.757-4.616-1.155 0-2.771.671-3.591 1.491M79.187 96.25l.313 3.25 9.75.286 9.75.286v-2.501C99 94.014 96.338 93 87.002 93h-8.129l.314 3.25m27.03-2c-.565.688-1.182 2.15-1.372 3.25-.334 1.938.28 2.008 19.905 2.271 19.5.26 20.25.198 20.25-1.679 0-4.589-2.019-5.092-20.449-5.092-12.63 0-17.584.338-18.334 1.25M94.64 125.512c4.968 4.521 12.413 8.771 19.36 11.053 6.69 2.198 20.502 2.482 27.184.56l4.684-1.348-4.581-6.888-4.58-6.889H90.779l3.861 3.512m50.992.508c1.463 2.212 2.806 3.875 2.984 3.698.177-.178.052-1.987-.278-4.021-.496-3.061-1.01-3.697-2.983-3.697h-2.383l2.66 4.02m7.417 22.889c-.718 1.341-.993 10.868-.816 28.306l.267 26.285h9v-56l-3.685-.306c-2.866-.239-3.924.142-4.766 1.715m17.332 1.632c-1.341 2.046-1.444 3.025-.532 5.028.624 1.368 1.814 2.748 2.645 3.067 2.737 1.05 6.546-.61 7.568-3.299 2.348-6.175-6.051-10.336-9.681-4.796M22 149.93c-5.837 1.325-8.702 2.806-13.105 6.775-10.45 9.421-12.085 26.393-3.605 37.417 6.511 8.464 19.937 12.896 30.21 9.972 3.952-1.125 4.042-1.09 7.527 2.884 1.94 2.212 3.965 4.008 4.5 3.99.535-.017 2.243-1.148 3.796-2.514l2.822-2.483-3.246-4.099c-2.21-2.789-2.951-4.496-2.323-5.345 5.635-7.605 7.318-11.962 7.38-19.099.127-14.644-10.574-26.311-25.497-27.798-2.727-.272-6.534-.137-8.459.3m167.246 5.224c-.906.906-1.246 6.38-1.246 20.078 0 20.754.667 23.996 5.614 27.269 3.711 2.457 12.482 2.571 17.739.23l3.853-1.715-2.098-3.258c-1.154-1.792-2.663-3.069-3.353-2.839-.69.231-2.951.617-5.024.857-6.006.697-6.731-.579-6.731-11.855v-9.833l7.25-.294c7.122-.289 7.256-.344 7.572-3.104.514-4.477-1.276-5.69-8.392-5.69h-6.325l-.303-5.25c-.3-5.212-.327-5.252-3.806-5.546-1.928-.162-4.065.265-4.75.95m-166.209 4.023c-7.846 2.245-13.057 9.408-13.015 17.889.024 4.904 2.648 11.504 5.623 14.146 4.241 3.765 12.498 5.821 16.78 4.178 1.325-.508 1.089-1.179-1.418-4.035-3.576-4.073-3.809-6.68-.784-8.798 3.282-2.299 4.074-1.999 7.784 2.952l3.379 4.51 2.057-3.249c2.967-4.687 2.811-13.874-.331-19.402-3.809-6.703-12.659-10.314-20.075-8.191M114 165.288c-1.61.811-2.617 2.272-2.828 4.107-.436 3.785.997 5.12 3.853 3.592 1.232-.66 4.849-1.224 8.038-1.254 6.296-.059 10.312 1.769 11.18 5.089.473 1.807-.159 1.981-8.616 2.376-5.955.277-10.251 1.018-12.36 2.131-4.314 2.275-6.633 6.908-5.962 11.911 1.233 9.193 9.708 12.613 27.755 11.201l8.94-.699v-14.137c0-16.615-1.04-19.643-8.013-23.33-3.394-1.795-5.904-2.272-11.894-2.26-4.176.008-8.718.581-10.093 1.273m-49.754.866c-1.784 1.784-1.692 23.844.118 28.175 5.537 13.251 28.434 13.983 34.667 1.108 1.775-3.668 1.995-5.816 1.75-17.066L100.5 165.5l-3.456-.329c-5.278-.502-6.044 1.343-6.044 14.566 0 10.721-.137 11.491-2.455 13.808-3.085 3.086-9.217 3.35-12.684.547-2.215-1.79-2.392-2.735-2.861-15.25l-.5-13.342-3.504-.296c-1.928-.162-4.065.265-4.75.95m106.895.176c-.844 1.017-1.109 6.614-.915 19.301l.274 17.869h9v-38l-3.586-.301c-2.209-.185-4.041.249-4.773 1.131m47.807.768c-.793 1.481-1.046 6.056-.768 13.868.467 13.098 1.93 17.026 7.564 20.317 4.901 2.862 12.966 3.275 17.506.897 3.705-1.941 3.75-1.941 3.75-.023 0 3.784-2.879 7.648-6.617 8.882-3.407 1.124-10.639.841-16.006-.626-1.72-.47-2.337.035-3.25 2.653-.62 1.778-1.127 3.355-1.127 3.506 0 .15 1.463.727 3.25 1.281 9.422 2.924 20.194 2.103 25.921-1.975 1.581-1.125 3.764-3.791 4.852-5.922 1.779-3.489 1.977-5.928 1.977-24.416V165h-3.378c-1.857 0-3.842.563-4.41 1.25-.568.688-1.186 6.526-1.372 12.975-.303 10.462-.575 11.959-2.52 13.902-3.141 3.138-10.444 3.191-13.542.099-2.068-2.064-2.324-3.446-2.778-15l-.5-12.726-3.685-.306c-2.957-.246-3.918.129-4.867 1.904M120 186.708c-.825.325-1.831 1.087-2.235 1.692-1.175 1.76-.878 6.266.485 7.347 1.973 1.566 8.174 2.369 12.701 1.645l4.144-.663-.297-5.114-.298-5.115-6.5-.192c-3.575-.106-7.175.074-8 .4M63.683 209.65c-.376.376-.683 2.826-.683 5.445 0 5.539 1.796 7.905 6 7.905 4.476 0 6.144-2.409 5.798-8.37-.395-6.795-2.168-6.561-2.798.37-.461 5.067-.697 5.5-3 5.5-2.292 0-2.526-.416-2.81-5-.31-5.003-1.223-7.134-2.507-5.85m16.984.017c-.367.366-.667 3.516-.667 7 0 4.963.325 6.333 1.5 6.333.833 0 1.5-.889 1.5-2 0-1.552.667-2 2.977-2 3.412 0 6.479-3.649 5.409-6.436-1.047-2.729-8.794-4.823-10.719-2.897m15.972.027c-.351.352-.639 3.489-.639 6.973 0 4.963.325 6.333 1.5 6.333 1 0 1.5-1 1.5-3 0-2.762.278-3 3.5-3s3.5.238 3.5 3c0 1.65.45 3 1 3 .563 0 1-2.814 1-6.441 0-3.543-.45-6.719-1-7.059-.583-.361-1 .656-1 2.441 0 2.829-.263 3.059-3.5 3.059-3.044 0-3.5-.318-3.5-2.441 0-2.509-1.227-3.999-2.361-2.865m18.996 1.379c-3.194 2.512-3.604 7.74-.806 10.272 2.471 2.237 8.424 2.138 10.516-.174 2.58-2.851 2.113-7.665-.98-10.098-1.449-1.14-3.413-2.073-4.365-2.073-.952 0-2.916.933-4.365 2.073M132 216v7h4.5c2.475 0 4.5-.45 4.5-1s-1.575-1-3.5-1H134v-6c0-3.333-.444-6-1-6-.571 0-1 3-1 7m13.861-5.063c-1.919 1.575-2.154 2.276-1.257 3.743.608.993 2.52 2.211 4.25 2.707s3.146 1.571 3.146 2.389c0 1.161-.889 1.368-4.054.944-2.831-.38-3.939-.193-3.672.618.606 1.846 8.183 2.022 9.674.224 1.841-2.217.595-4.437-3.434-6.121-4.493-1.877-4.5-3.441-.014-3.441 3.927 0 4.691-1.448 1.25-2.37-3.194-.856-3.275-.838-5.889 1.307m11.878-1.342c-1.082 1.081.195 2.405 2.32 2.405 1.686 0 1.941.722 1.941 5.5 0 3.025.45 5.5 1 5.5s1-2.444 1-5.43c0-4.695.276-5.474 2.04-5.75 1.121-.176 2.134-.77 2.25-1.32.237-1.129-9.492-1.964-10.551-.905m14.928.072c-.367.366-.667 3.516-.667 7V223h5.5c3.025 0 5.5-.45 5.5-1s-1.8-1-4-1c-3.333 0-4-.333-4-2 0-1.625.667-2 3.559-2 2.118 0 3.309-.405 2.941-1-.34-.55-1.941-1-3.559-1-1.948 0-2.941-.507-2.941-1.5 0-1.048 1.056-1.5 3.5-1.5s3.5-.452 3.5-1.5c0-1.103-1.148-1.5-4.333-1.5-2.384 0-4.634.3-5 .667m15.083-.087c-.412.414-.75 3.603-.75 7.087 0 4.963.325 6.333 1.5 6.333.833 0 1.5-.889 1.5-2 0-2.694 2.727-2.557 5.004.25 1.003 1.238 2.152 1.923 2.552 1.524.401-.399.144-1.431-.571-2.292-.985-1.187-1.019-1.848-.143-2.724 1.34-1.34 1.56-6.391.313-7.162-1.622-1.003-8.661-1.763-9.405-1.016m14.257.67c.003.688.9 2.6 1.993 4.25s1.99 4.238 1.993 5.75c.005 1.775.539 2.75 1.507 2.75.936 0 1.5-.947 1.5-2.52 0-1.386 1.117-4.289 2.482-6.452 1.365-2.162 2.079-4.181 1.586-4.486-.494-.305-1.889 1.05-3.1 3.01l-2.204 3.565-2.418-3.558c-2.572-3.785-3.35-4.323-3.339-2.309M83 214.5c0 2.282.366 2.591 2.75 2.316 1.978-.227 2.75-.878 2.75-2.316 0-1.438-.772-2.089-2.75-2.316-2.384-.275-2.75.034-2.75 2.316m32.98-.462c-2.196 4.103 1.345 7.946 5.969 6.478 2.491-.79 3.472-3.86 2.071-6.478-1.481-2.769-6.559-2.769-8.04 0m74.02.462c0 2.282.366 2.591 2.75 2.316 1.978-.227 2.75-.878 2.75-2.316 0-1.438-.772-2.089-2.75-2.316-2.384-.275-2.75.034-2.75 2.316"/><path fill="#FFF" fill-opacity=".145" fill-rule="evenodd" d="M114.645 33.584c-19.469 4.713-36.482 21.897-41.108 41.519-7.108 30.156 11.149 60.59 41.015 68.369 22.349 5.821 47.409-3.617 60.453-22.768 6.525-9.578 9.108-17.202 9.727-28.708.643-11.942-.743-18.788-5.881-29.053-11.646-23.268-38.549-35.57-64.206-29.359m2.115 5.974c-3.157.765-7.657 2.353-10 3.529C101.401 45.777 92 52.748 92 54.032c0 .601 10.901.968 28.777.968 24.459 0 29.112.234 31.006 1.561 2.882 2.018 5.217 6.58 5.217 10.192 0 2.796.109 2.852 5.475 2.8 4.689-.045 5.874.346 8.25 2.72 3.894 3.892 3.505 7.928-2.624 27.227-4.133 13.014-5.646 16.513-8.107 18.75-1.664 1.513-3.918 2.75-5.01 2.75-1.592 0-1.964.642-1.884 3.25.055 1.787.398 4.315.763 5.616.663 2.361.674 2.358 5.725-1.635 15.522-12.269 22.725-33.092 17.881-51.689-6.992-26.844-34.188-43.412-60.709-36.984M84.164 64.843c-2.999 5.628-6.119 16.233-6.149 20.907-.014 2.159.331 2.25 8.517 2.25 5.178 0 9.892.568 11.991 1.445 3.011 1.258 3.817 1.259 6.218.006 4.321-2.254 34.931-2.052 39.784.262 3.121 1.489 3.714 1.522 4.511.25 1.918-3.057 4.188-16.248 3.735-21.706-.788-9.504.152-9.257-35.242-9.257h-30.25l-3.115 5.843M83 73.5c0 1.405.644 2.071 2 2.071 1.356 0 2-.666 2-2.071 0-1.405-.644-2.071-2-2.071-1.356 0-2 .666-2 2.071m17-.121c0 1.526.608 2.192 2 2.192 1.201 0 2-.666 2-1.669 0-.918-.9-1.904-2-2.192-1.551-.405-2-.03-2 1.669m17 .121c0 1.82.426 2.201 2 1.79 1.1-.288 2-1.093 2-1.79 0-.697-.9-1.502-2-1.79-1.574-.411-2-.03-2 1.79m17 0c0 1.259.628 2.167 1.5 2.167s1.5-.908 1.5-2.167-.628-2.167-1.5-2.167-1.5.908-1.5 2.167m25.405 1.593c-1.048 1.151-3.71 8.013-5.917 15.25l-4.011 13.157-34.239.263c-26.403.203-34.233.546-34.215 1.5.013.68 1.252 3.487 2.754 6.237l2.73 5 34.12.263c31.395.242 34.294.122 36.307-1.508 1.52-1.231 3.695-6.586 7.127-17.55 5.585-17.843 5.943-20.888 2.716-23.148-3.011-2.109-5.103-1.957-7.372.536M78.678 92.75c-.242.412-.217 2.213.055 4l.494 3.25h10.386c9.232 0 10.385-.195 10.372-1.75-.039-4.446-3.895-6.25-13.36-6.25-4.129 0-7.705.338-7.947.75m27.545.807c-1.266.886-2.223 2.608-2.223 4V100h41v-2.443c0-4.766-2.917-5.557-20.5-5.557-12.913 0-16.49.305-18.277 1.557M91 121.922c0 1.634 8.33 8.172 14.243 11.179 10.822 5.504 22.558 7.211 33.458 4.867 7.988-1.719 8.067-1.941 3.242-9.1-2.361-3.502-4.777-6.699-5.368-7.103-1.594-1.089-45.575-.938-45.575.157m52 .099c0 1.507 5.119 8.979 6.152 8.979.487 0 .653-1.125.367-2.5l-1.038-5c-.385-1.855-1.159-2.5-3-2.5-1.365 0-2.481.46-2.481 1.021m11.243 26.136c-.929.929-1.243 8.017-1.243 28.043V203h8.032l-.266-27.75-.266-27.75-2.507-.293c-1.379-.161-3.066.266-3.75.95M171.2 149.2c-2.944 2.944-.344 9.8 3.716 9.8 4.458 0 6.962-7.924 3.15-9.965-2.573-1.377-5.392-1.309-6.866.165m-153.452 2.227c-7.784 2.777-14.114 9.56-16.769 17.968-1.646 5.212-.75 15.173 1.816 20.203 2.465 4.833 9.037 10.992 14.065 13.181 4.356 1.897 17.648 2.184 20.787.448 1.911-1.057 2.459-.785 5 2.483 1.569 2.019 3.144 4.098 3.5 4.622.792 1.166 6.87-2.982 6.812-4.65-.022-.65-1.332-2.693-2.912-4.539l-2.871-3.356 3.293-4.315c10.759-14.095 4.209-36.088-12.504-41.984-5.183-1.829-15.179-1.859-20.217-.061m171.95 4.354c-1.463 1.616-1.698 4.33-1.698 19.58 0 19.368.689 22.676 5.514 26.471 3.378 2.658 12.96 3.009 17.536.642 3.388-1.752 3.321-1.565 1.771-4.967-1.027-2.254-1.574-2.493-4.25-1.856-9.303 2.216-11.571-.375-11.571-13.22v-9.347l7.75-.292c7.23-.272 7.772-.447 8.077-2.597.569-4.016-1.449-5.195-8.897-5.195h-6.825l-.303-5.25c-.276-4.791-.525-5.276-2.854-5.547-1.529-.178-3.233.454-4.25 1.578m-169.314 4.132c-6.522 2.962-9.764 8.047-10.186 15.977-.461 8.664 2.377 14.431 8.762 17.807 4.085 2.16 12.802 3.208 14.292 1.717.322-.322-.789-2.536-2.47-4.921-3.327-4.719-3.207-6.987.446-8.453 1.958-.787 2.852-.265 6.461 3.769l4.189 4.681 2.039-4.495c2.531-5.581 2.609-12.255.202-17.495-2.185-4.758-4.415-6.89-9.373-8.962-4.855-2.028-9.327-1.911-14.362.375m94.364 5.19c-3.154 1.22-4.602 5.163-2.727 7.422 1.011 1.219 1.529 1.264 2.762.24.897-.745 4.351-1.26 8.451-1.262 6.36-.003 7.135.23 9.35 2.803 3.892 4.52 3.254 5.636-2.862 5.005-7.796-.805-15.84 1.159-19.227 4.694-5.607 5.852-3.113 15.986 4.599 18.689 3.891 1.363 25.729 1.705 27.734.433 1.028-.651 1.254-4.023 1-14.915-.364-15.621-1.12-17.711-7.822-21.635-3.851-2.255-16.901-3.16-21.258-1.474m-50.22 1.512c-2.619 2.619-1.895 24.412.972 29.28 3.137 5.327 6.697 7.419 13.452 7.908 8.251.597 12.519-.4 16.436-3.838 4.579-4.021 5.768-9.069 5.409-22.965l-.297-11.5-2.81-.322c-4.958-.569-5.69 1.014-5.69 12.295C92 192.856 90.328 196 82.148 196c-8.496 0-9.48-1.747-10.14-18l-.508-12.5-2.624-.304c-1.501-.174-3.363.434-4.348 1.419M172 165.953c-1.222.79-1.558 4.317-1.813 19.009L169.874 203h9.17l-.272-18.75-.272-18.75-2.5-.259c-1.375-.143-3.175.178-4 .712m48.086.443c-.894 1.077-1.151 5.283-.914 14.974.311 12.771.459 13.615 2.828 16.148 1.375 1.469 3.839 3.369 5.477 4.22 3.913 2.035 12.247 1.973 16.296-.121l3.227-1.668v2.97c0 1.696-1.034 4.172-2.412 5.775-2.235 2.601-2.949 2.806-9.75 2.806-4.036 0-8.503-.328-9.927-.729-2.313-.651-2.699-.367-3.629 2.662l-1.041 3.39 4.323 1.089c2.377.598 7.355 1.088 11.063 1.088 8.451 0 14.355-2.626 17.585-7.821 2.194-3.529 2.288-4.537 2.288-24.679v-21l-2.81-.322c-5.058-.58-5.69.922-5.69 13.521 0 11.327-.033 11.487-2.923 14.378-3.336 3.336-7.454 3.813-12.112 1.405-3.614-1.869-3.912-3.102-4.219-17.482l-.246-11.5-3.085-.301c-1.839-.18-3.588.304-4.329 1.197M118 188c-5.647 5.647.468 10.641 12.023 9.819l4.477-.319.3-5.75.3-5.75h-7.55c-6.217 0-7.903.353-9.55 2m-53.84 27.05c-.178 6.164.909 7.95 4.84 7.95s5.018-1.786 4.84-7.95c-.106-3.682-.281-4.372-.52-2.05-.741 7.207-1.169 8-4.32 8-3.151 0-3.579-.793-4.32-8-.239-2.322-.414-1.632-.52 2.05m16.903 1.7c.048 5.061.29 6.187.968 4.5.535-1.331 1.761-2.25 3.003-2.25 3.364 0 5.966-1.891 5.966-4.335 0-3.262-1.864-4.665-6.2-4.665H81l.063 6.75m16.215-.25c.023 3.85.224 5.537.445 3.75.379-3.048.648-3.25 4.34-3.25 3.708 0 3.937.175 3.937 3 0 1.65.45 3 1 3 .564 0 1-2.833 1-6.5 0-6.408-1.568-9.101-2.184-3.75-.277 2.414-.742 2.75-3.806 2.75-3.069 0-3.568-.362-4.132-3-.405-1.893-.626-.416-.6 4M115 212c-4.12 4.12-1.038 11 4.927 11 3.219 0 7.073-3.888 7.073-7.135 0-2.828-3.624-5.865-7-5.865-1.667 0-3.889.889-5 2m17 4.5v6.5h4.5c2.475 0 4.5-.45 4.5-1s-1.575-1-3.5-1H134v-5.5c0-3.025-.45-5.5-1-5.5-.564 0-1 2.833-1 6.5m13.667-5.833c-.367.366-.667 1.708-.667 2.981 0 1.698.731 2.489 2.75 2.971 1.512.361 3.353 1.134 4.09 1.716 2.197 1.737-1.387 3.788-4.529 2.593-1.868-.71-2.379-.632-2.064.314.522 1.569 3.163 2.123 6.332 1.328 1.694-.426 2.421-1.307 2.421-2.937 0-1.803-.937-2.698-4.143-3.957-3.637-1.429-3.979-1.824-2.806-3.238.913-1.1 2.242-1.429 4.193-1.039 1.752.35 2.62.19 2.247-.414-.682-1.104-6.79-1.352-7.824-.318m14.083.039c2.032.391 2.25 1.009 2.25 6.364 0 3.287.446 5.93 1 5.93s1-2.643 1-5.93c0-5.355.218-5.973 2.25-6.364 1.238-.239-.225-.434-3.25-.434s-4.488.195-3.25.434M173 216.5v6.5h4.5c2.475 0 4.5-.45 4.5-1s-1.575-1-3.5-1c-2.795 0-3.5-.39-3.5-1.937 0-1.435.841-2.041 3.25-2.34l3.25-.403-3.25-.16c-2.735-.135-3.25-.547-3.25-2.6 0-2.082.549-2.497 3.75-2.832 3.436-.359 3.352-.406-1-.56L173 210v6.5m15.136.25c.075 3.713.331 5.738.57 4.5.561-2.913 4.779-3.08 6.294-.25.589 1.1 1.52 2 2.07 2 .627 0 .579-.788-.127-2.107-.816-1.524-.826-2.41-.036-3.2 1.45-1.45 1.391-4.995-.107-6.493-.66-.66-2.91-1.2-5-1.2H188l.136 6.75m16.269-2.322c1.427 2.436 2.615 5.473 2.639 6.75.033 1.769.362 1.431 1.379-1.419.734-2.057 2.1-4.909 3.036-6.337.935-1.427 1.454-2.842 1.152-3.144-.302-.302-1.35.859-2.33 2.58-.979 1.721-2.093 3.132-2.474 3.136-.382.003-1.491-1.344-2.466-2.994-.975-1.65-2.168-3-2.652-3-.483 0 .289 1.993 1.716 4.428m-121.738-2.761c-.367.366-.667 1.716-.667 3 0 2 .5 2.333 3.5 2.333 3.025 0 3.5-.325 3.5-2.393 0-2.923-4.337-4.937-6.333-2.94m33.988 1.162C113.348 216.482 115.198 221 120 221c4.88 0 6.802-5.059 3.171-8.345-2.377-2.151-4.462-2.095-6.516.174m73.012-1.162c-.367.366-.667 1.716-.667 3 0 2 .5 2.333 3.5 2.333 3.025 0 3.5-.325 3.5-2.393 0-2.923-4.337-4.937-6.333-2.94"/><path fill="#FFF" fill-opacity=".824" fill-rule="evenodd" d="M118 33.13c-9.387 1.529-21.293 7.956-28.98 15.643-22.554 22.554-22.58 56.786-.06 79.247 8.691 8.669 14.764 12.224 25.625 15.002 9.801 2.506 18.029 2.506 27.83 0 10.869-2.78 16.941-6.337 25.605-15.002 8.665-8.664 12.222-14.736 15.002-25.605 4.985-19.491-.233-38.49-14.589-53.125C154.999 35.597 137.424 29.965 118 33.13m-2.895 6.453c-8.374 2.251-15.022 6.285-22.105 13.413-10.508 10.575-15 21.299-15 35.81 0 22.413 15.005 42.158 36.932 48.599 6.158 1.809 19.576 2.098 25.568.551 8.482-2.19 18.045-7.812 24.213-14.236 15.543-16.186 18.818-38.908 8.535-59.214-3.168-6.255-14.127-17.169-20.823-20.736-10.538-5.615-25.691-7.315-37.32-4.187m38.562 109.084c-.367.366-.667 12.741-.667 27.5V203h8v-55h-3.333c-1.834 0-3.634.3-4 .667m17.988 1.162c-3.515 3.884-1.151 8.59 4.016 7.993 3.864-.446 5.49-4.882 2.856-7.792-2.279-2.519-4.71-2.59-6.872-.201m-152.937 1.608c-9.395 3.352-15.763 10.644-17.78 20.361-2.27 10.937 2.87 22.756 12.465 28.661 4.02 2.474 6.219 3.084 12.221 3.387 4.026.203 8.793-.152 10.597-.789 3.175-1.122 3.406-1.016 7.279 3.348l4 4.506 2.956-2.407 2.956-2.408-3.29-4.094-3.29-4.093 2.635-3.455c4.106-5.383 5.534-9.821 5.523-17.172-.012-8.414-2.919-15.198-8.773-20.476-6.786-6.116-18.819-8.466-27.499-5.369m170.949 4.23c-1.055 1.054-.775 38.918.308 41.767 1.365 3.591 6.679 6.558 11.755 6.562 3.756.004 12.27-2.522 12.27-3.64 0-.234-.711-1.511-1.579-2.836-1.328-2.026-1.975-2.26-4.065-1.465-3.909 1.486-7.185 1.116-9.356-1.055-1.733-1.733-2-3.333-2-12v-10h7.5c7.841 0 8.211-.246 7.519-5-.347-2.377-2.084-2.968-8.769-2.985L197 165v-5c0-5 0-5-3.333-5-1.834 0-3.634.3-4 .667m-170.444 4.452c-5.962 2.951-9.691 9.443-9.687 16.867.005 11.091 7.491 19.219 17.839 19.368 3.038.044 5.839-.234 6.223-.619.385-.384-.493-2.419-1.949-4.521-2.991-4.315-3.411-7.707-1.067-8.607 2.953-1.133 4.03-.613 6.976 3.369 1.618 2.187 3.421 3.987 4.007 4 3.436.077 5.78-14.286 3.371-20.661-3.692-9.773-15.8-14.103-25.713-9.196m97.916 4.821c-4.532 1.15-6.522 3.278-5.645 6.04.556 1.754 1.137 2.042 2.852 1.413 1.185-.434 5.457-.813 9.494-.841 6.54-.046 7.547.205 9.25 2.309 1.05 1.298 1.91 3.211 1.91 4.25 0 1.704-.833 1.889-8.532 1.889-13.12 0-18.468 3.236-18.468 11.175 0 8.362 4.364 11.892 15.59 12.612 3.979.256 10.256.141 13.948-.254l6.712-.719-.438-13.745c-.499-15.619-1.702-19.02-7.862-22.216-4.129-2.142-13.964-3.142-18.811-1.913m-51.389 1.14c-1.521.886-1.75 2.68-1.75 13.735 0 10.476.327 13.326 1.855 16.176 5.696 10.619 26.766 10.636 32.321.025 1.497-2.86 1.824-5.85 1.824-16.683 0-12.235-.143-13.244-1.962-13.821-1.079-.343-2.879-.132-4 .468-1.875 1.003-2.038 2.04-2.038 12.999 0 11.148-.154 12.089-2.413 14.715-2.066 2.402-3.159 2.806-7.587 2.806s-5.521-.404-7.587-2.806C72.144 191.056 72 190.151 72 178.551c0-10.327-.258-12.436-1.582-12.944-2.069-.794-2.581-.742-4.668.473m107 0c-1.564.911-1.75 2.929-1.75 18.97V203h8v-18.393c0-15.85-.219-18.477-1.582-19-2.069-.794-2.581-.742-4.668.473m48 0c-1.515.883-1.75 2.654-1.748 13.22.001 13.518 1.142 17.329 6.321 21.129 3.807 2.792 16.439 3.001 19.401.321 2.527-2.288 3.276-2.208 3.276.349 0 3.019-2.868 8.628-4.827 9.439-4.351 1.801-8.935 2.228-14.426 1.344-3.298-.531-6.129-.834-6.29-.672-.162.162-.595 1.491-.962 2.953-.643 2.564-.458 2.703 5.147 3.866 11.12 2.309 21.069-.067 25.57-6.106 3.049-4.091 3.739-9.234 3.764-28.056.023-16.803-.07-17.658-1.976-18.157-1.1-.287-2.9-.287-4 0-1.825.477-2 1.367-2.006 10.157-.009 15.918-2.241 20.133-10.661 20.133-3.019 0-5.021-.687-7.027-2.411-2.751-2.364-2.813-2.654-3.145-14.746-.38-13.792-1.345-15.714-6.411-12.763M121 185.709c-2.997 1.102-5 3.662-5 6.389 0 4.298 3.187 5.902 11.723 5.902H135v-5.883c0-5.256-.24-5.948-2.25-6.487-2.722-.729-9.678-.682-11.75.079"/></svg>